Coordinates
version=1
nRows=8
nColumns=40
inDegrees=yes

Units are S.I. units (second, meters, Newtons, ...)
Angles are in degrees.

endheader
time	pelvis_tilt	pelvis_list	pelvis_rotation	pelvis_tx	pelvis_ty	pelvis_tz	hip_flexion_r	hip_adduction_r	hip_rotation_r	knee_angle_r	knee_angle_r_beta	ankle_angle_r	subtalar_angle_r	mtp_angle_r	hip_flexion_l	hip_adduction_l	hip_rotation_l	knee_angle_l	knee_angle_l_beta	ankle_angle_l	subtalar_angle_l	mtp_angle_l	lumbar_extension	lumbar_bending	lumbar_rotation	arm_flex_r	arm_add_r	arm_rot_r	elbow_flex_r	pro_sup_r	wrist_flex_r	wrist_dev_r	arm_flex_l	arm_add_l	arm_rot_l	elbow_flex_l	pro_sup_l	wrist_flex_l	wrist_dev_l
     45.54500000	     -5.88208402	     -6.34757708	      1.55724126	      0.82581923	      0.92235721	      0.50803901	      3.82358890	      5.45390891	    -16.35105703	     11.78780452	     11.78780452	     14.68850935	      3.02864755	     -4.49544494	     29.72859615	    -10.60303492	     -1.27939983	     21.81081904	     21.81081904	      3.09813010	    -10.13719527	      6.85350742	    -10.46432580	      9.29083118	      2.69636251	     34.13463760	    -14.67076674	      3.49993872	     58.79970828	     45.08342385	      0.00000000	      0.00000000	     -5.08384120	    -10.89926483	    -17.63397618	     42.58200041	     46.90195647	      0.00000000	      0.00000000
     45.55821429	     -5.90179170	     -6.38704488	      1.43572035	      0.82607863	      0.92169214	      0.50651956	      3.38459751	      5.41603162	    -16.04612937	     11.84150460	     11.84150460	     15.01255800	      2.87354031	     -4.35447146	     29.48486937	    -10.60425613	     -1.23952525	     22.56404043	     22.56404043	      3.48544638	    -10.42409648	      6.48363142	    -10.33783575	      9.17924234	      2.57373832	     33.30398996	    -14.61401685	      3.51227167	     59.20718036	     45.06711157	      0.00000000	      0.00000000	     -5.25859889	    -11.06854494	    -17.81084405	     42.55105880	     46.91571715	      0.00000000	      0.00000000
     45.57142857	     -5.93235748	     -6.36818954	      1.32280974	      0.82629478	      0.92128444	      0.50479600	      2.99404939	      5.28290783	    -15.80738327	     11.95110871	     11.95110871	     15.25712607	      2.74419623	     -4.30145673	     29.19654866	    -10.51972064	     -1.22011747	     23.10327015	     23.10327015	      3.93391416	    -10.70237686	      6.18393036	    -10.23995127	      9.01397379	      2.40944842	     32.32361364	    -14.54592480	      3.55403114	     59.24239676	     45.06064389	      0.00000000	      0.00000000	     -5.45610934	    -11.19384551	    -17.91242801	     42.47413566	     46.92235698	      0.00000000	      0.00000000
     45.58464286	     -5.94450974	     -6.34247177	      1.26737718	      0.82648525	      0.92104211	      0.50290093	      2.60990355	      5.11889620	    -15.58094495	     12.10713195	     12.10713195	     15.44703996	      2.61521463	     -4.26745174	     28.94530613	    -10.39027540	     -1.13552031	     23.63317568	     23.63317568	      4.44156299	    -10.98825841	      5.88101428	    -10.13387502	      8.83270714	      2.19759805	     31.34820828	    -14.49676990	      3.59126419	     59.17977914	     45.05737001	      0.00000000	      0.00000000	     -5.59342030	    -11.28737509	    -17.98357408	     42.40876688	     46.92695559	      0.00000000	      0.00000000
     45.59785714	     -5.93330033	     -6.29158294	      1.24265181	      0.82661268	      0.92096738	      0.50075783	      2.25049798	      4.90550683	    -15.40026399	     12.33339273	     12.33339273	     15.57178299	      2.39911896	     -4.19998808	     28.76756043	    -10.21119868	     -1.04006848	     24.25803015	     24.25803015	      4.95680119	    -11.32902986	      5.57514151	    -10.09264110	      8.65721427	      1.96941129	     30.21461434	    -14.47398971	      3.61713448	     59.07208522	     45.05540743	      0.00000000	      0.00000000	     -5.68911035	    -11.39719109	    -18.06096133	     42.35279099	     46.93270226	      0.00000000	      0.00000000
     45.61107143	     -6.09782151	     -6.31043890	      1.20426317	      0.82640773	      0.92065101	      0.49848451	      2.36797489	      4.72171338	    -14.92809736	     13.06127310	     13.06127310	     15.79610006	      1.47252007	     -3.70875005	     28.96188604	    -10.06504661	     -0.79535652	     25.11051267	     25.11051267	      5.48086626	    -11.90360754	      5.45943721	     -9.92834362	      8.57832848	      2.26495541	     28.53148652	    -14.95409412	      3.18398097	     59.75260907	     45.04651405	      0.00000000	      0.00000000	     -5.36765640	    -11.36321328	    -18.27926598	     42.34251089	     46.95148188	      0.00000000	      0.00000000
     45.62428571	     -6.03522850	     -6.22721675	      1.24797381	      0.82657812	      0.92095409	      0.49585371	      1.93248533	      4.43634228	    -14.83990552	     13.24169332	     13.24169332	     15.84332582	      1.38533695	     -3.65418699	     28.65049809	     -9.78769890	     -0.65704435	     25.52360336	     25.52360336	      6.02835006	    -12.18385755	      5.25698477	     -9.95526312	      8.43595711	      1.94803459	     27.25795860	    -14.93353894	      3.20117892	     59.46216070	     45.05061369	      0.00000000	      0.00000000	     -5.44111833	    -11.39833632	    -18.30575225	     42.26922946	     46.95173425	      0.00000000	      0.00000000
     45.63750000	     -5.98839998	     -6.17499207	      1.28877800	      0.82671791	      0.92131701	      0.49305754	      1.56577999	      4.15142217	    -14.80717223	     13.51502310	     13.51502310	     15.80206351	      1.28596214	     -3.60011773	     28.37622072	     -9.52682155	     -0.50582186	     25.96345225	     25.96345225	      6.53846008	    -12.52615022	      5.09990420	     -9.97378032	      8.32680319	      1.66683882	     25.93344789	    -14.99677262	      3.20064845	     59.05972122	     45.05898127	      0.00000000	      0.00000000	     -5.46461536	    -11.40408203	    -18.32661948	     42.23929734	     46.95231084	      0.00000000	      0.00000000
